# xmcd
# Track frame offsets:
# 183
# 21243
# 32315
# 50870
# 64103
# 77053
# 94453
# 109973
# 126110
# 143460
# 159883
# 176998
# 196853
# 209403
# 228583
# 245848
# 257708
# 267228
#
# Disc length: 3793 seconds
# Revision: 0
# Processed by: cddbd v1.5.1PL0 Copyright (c) Steve Scherf et al.
# Submitted via: VisiTrax 2.9.10.228 - For more info visit www.synapsa.com
#
DISCID=040ecf12
DTITLE=Diana Trask - Country Bumpkin
DYEAR=1900
DGENRE=Country
TTITLE0=Country Bumpkin
TTITLE1=Take Me Home Country Road
TTITLE2=I Believe In You
TTITLE3=Oh Boy
TTITLE4=One's On The Way
TTITLE5=Always On My Mind
TTITLE6=Let Your Love Flow
TTITLE7=One Day At A Time
TTITLE8=Whatever Happend To Old Fashioned Love
TTITLE9=Looking For Love
TTITLE10=Angel Of The Morning
TTITLE11=Lying Eyes
TTITLE12=Before The Next Teardrop Falls
TTITLE13=Your Cheatin' Heart
TTITLE14=By The Time I Get To Phoenix
TTITLE15=Elusive Butterfly
TTITLE16=Snowbird
TTITLE17=The Last Waltz
EXTD=CD MAM 151 Hammard
EXTT0=
EXTT1=
EXTT2=
EXTT3=
EXTT4=
EXTT5=
EXTT6=
EXTT7=
EXTT8=
EXTT9=
EXTT10=
EXTT11=
EXTT12=
EXTT13=
EXTT14=
EXTT15=
EXTT16=
EXTT17=
PLAYORDER=
